<svg width="120" height="46" viewBox="0 0 120 46" fill="none" xmlns="http://www.w3.org/2000/svg">
<path d="M16.168 45.268C16.168 45.268 16.168 26.8709 16.168 18.0901C16.168 6.19331 25.8154 0.766776 34.4938 0.766776L42.8135 0.760742C42.8135 5.57494 39.6736 11.5625 34.1431 11.5625C33.929 11.5625 32.5986 11.5686 32.3898 11.5686C28.0345 11.5686 24.485 14.9681 24.485 22.0054C24.485 24.2617 24.485 30.9068 24.485 34.8221C24.4877 42.2697 20.906 45.3856 16.168 45.268Z" fill="url(#paint0_linear_418_300)"/>
<path opacity="0.32" d="M20.8766 6.04535C18.0391 8.8657 16.168 12.8474 16.168 18.0869C16.168 26.8707 16.168 45.2648 16.168 45.2648C19.5381 45.2648 20.3814 42.5349 20.3814 40.0434C20.3814 37.5518 20.3814 30.1345 20.3814 22.0022C20.3814 13.8729 23.9095 11.5654 32.3925 11.5654L31.1236 5.62305L20.8766 6.04535Z" fill="url(#paint1_linear_418_300)"/>
<path d="M12.7446 11.5596C12.7446 5.56598 16.8 0.757812 20.8555 0.757812H0C0 5.62329 3.26578 11.5596 9.21646 11.5596H12.7446Z" fill="url(#paint2_linear_418_300)"/>
<path d="M12.7446 11.5596C12.7446 5.56598 16.8 0.757812 20.8555 0.757812H0C0 5.62329 3.26578 11.5596 9.21646 11.5596H12.7446Z" fill="url(#paint3_linear_418_300)"/>
<path d="M42.8174 0.757812L34.4977 0.763844C25.8166 0.763844 16.1719 6.19038 16.1719 18.0871C16.1719 19.4777 16.1719 21.1126 16.1719 22.8742C16.1719 12.3801 26.3092 11.5656 32.3964 11.5656C32.6052 11.5656 33.9356 11.5747 34.1497 11.5596C40.8419 11.0257 42.8174 5.57201 42.8174 0.757812Z" fill="url(#paint4_linear_418_300)"/>
<path opacity="0.42" d="M16.168 18.0871C16.168 19.4777 16.168 21.1126 16.168 22.8742C16.168 -3.10622 42.8162 13.9667 42.8162 0.757812L34.4965 0.763844C25.8154 0.763844 16.168 6.19339 16.168 18.0871Z" fill="url(#paint5_linear_418_300)"/>
<path d="M13.2184 0.757812H0C0 3.72597 1.21797 7.09229 3.5174 9.26411C-0.647802 3.4756 8.90058 0.757812 13.2184 0.757812Z" fill="url(#paint6_linear_418_300)"/>
<path opacity="0.32" d="M5.67764 0.757812H0C0 2.22379 0.297131 3.78629 0.875335 5.25529C0.993117 3.1619 3.16406 1.6748 5.67764 0.757812Z" fill="url(#paint7_linear_418_300)"/>
<path d="M39.0916 28.5772V34.2759H38.4297V22.3511H42.5427C44.7762 22.3511 46.1424 23.4731 46.1424 25.4447C46.1424 26.9101 45.346 27.9649 43.7886 28.2622C45.0452 28.5206 45.9548 29.2285 45.9548 31.4761V31.823C45.9548 33.0052 45.9336 33.8795 46.107 34.2759H45.4345C45.254 33.7485 45.2894 32.8955 45.2894 31.7876V31.554C45.2894 29.5294 44.7266 28.5772 42.2666 28.5772H39.0916ZM39.0916 27.9755H42.1781C44.1815 27.9755 45.4522 27.2817 45.4522 25.4624C45.4522 23.8731 44.3974 22.9457 42.433 22.9457H39.0916V27.9755Z" fill="#A74CFF"/>
<path d="M50.3061 22.3511V29.6816C50.3061 32.8813 52.1537 33.8335 54.012 33.8335C56.2703 33.8335 57.6861 32.6902 57.6861 29.6816V22.3511H58.3409V29.6249C58.3409 33.2813 56.4402 34.4281 53.9766 34.4281C51.7361 34.4281 49.6406 33.2495 49.6406 29.809V22.3511H50.3061Z" fill="#A74CFF"/>
<path d="M69.4203 28.2728H63.1481V33.6848H70.0007L69.8981 34.2795H62.5039V22.3511H69.7459V22.9457H63.1516V27.6782H69.4238V28.2728H69.4203Z" fill="#A74CFF"/>
<path d="M73.0362 31.1217C73.3937 32.8702 74.6077 33.8507 76.6005 33.8507C78.7597 33.8507 79.8393 32.7711 79.8393 31.2562C79.8393 29.7554 79.1809 28.9377 76.4908 28.244C74.0237 27.6068 72.9123 26.8458 72.9123 25.1079C72.9123 23.4585 74.1476 22.1807 76.512 22.1807C79.1278 22.1807 80.1295 23.7629 80.2994 25.1504H79.634C79.3472 23.731 78.4022 22.7753 76.4766 22.7753C74.6962 22.7753 73.6025 23.5894 73.6025 25.0654C73.6025 26.4848 74.4485 27.0688 76.6961 27.6352C79.9631 28.4599 80.5295 29.6669 80.5295 31.2066C80.5295 33.0507 79.1667 34.4276 76.5758 34.4276C73.8432 34.4276 72.6433 32.895 72.3672 31.1217H73.0362Z" fill="#A74CFF"/>
<path d="M86.4887 22.9457H82.3828V22.3511H91.2636V22.9457H87.1436V34.2759H86.4887V22.9457Z" fill="#A74CFF"/>
<path d="M93.4609 29.9081L91.8221 34.2759H91.1602L95.6307 22.3511H96.374L101.032 34.2759H100.324L98.6358 29.9081H93.4609V29.9081ZM98.4092 29.317C96.9969 25.6641 96.2359 23.6997 95.9988 22.9988H95.9811C95.7722 23.6855 94.8166 26.2552 93.691 29.317H98.4092Z" fill="#A74CFF"/>
<path d="M105.055 22.9457H100.949V22.3511H109.83V22.9457H105.71V34.2759H105.055V22.9457V22.9457Z" fill="#A74CFF"/>
<path d="M119.42 28.2728H113.148V33.6848H120.001L119.898 34.2795H112.504V22.3511H119.746V22.9457H113.152V27.6782H119.424V28.2728H119.42Z" fill="#A74CFF"/>
<defs>
<linearGradient id="paint0_linear_418_300" x1="29.2296" y1="10.134" x2="29.8314" y2="33.4525" gradientUnits="userSpaceOnUse">
<stop offset="0.000294" stop-color="#2A0056"/>
<stop offset="1" stop-color="#8A0BFF"/>
</linearGradient>
<linearGradient id="paint1_linear_418_300" x1="16.1676" y1="25.4458" x2="32.3923" y2="25.4458" gradientUnits="userSpaceOnUse">
<stop offset="0.000294" stop-color="#2A0056"/>
<stop offset="1" stop-color="#8A0BFF"/>
</linearGradient>
<linearGradient id="paint2_linear_418_300" x1="3.07789" y1="-3.21417" x2="14.9679" y2="5.24749" gradientUnits="userSpaceOnUse">
<stop stop-color="#DF38FF"/>
<stop offset="1" stop-color="#FF39FF"/>
</linearGradient>
<linearGradient id="paint3_linear_418_300" x1="6.54559" y1="-0.0805705" x2="18.4356" y2="8.38109" gradientUnits="userSpaceOnUse">
<stop stop-color="#3D0056"/>
<stop offset="0.793" stop-color="#FF0BA2" stop-opacity="0.4"/>
</linearGradient>
<linearGradient id="paint4_linear_418_300" x1="16.1688" y1="11.8174" x2="42.8164" y2="11.8174" gradientUnits="userSpaceOnUse">
<stop stop-color="#A553FF"/>
<stop offset="0.9994" stop-color="#AE38FF"/>
</linearGradient>
<linearGradient id="paint5_linear_418_300" x1="45.4689" y1="11.7317" x2="18.2945" y2="11.8252" gradientUnits="userSpaceOnUse">
<stop stop-color="#8A0BFF"/>
<stop offset="0.9994" stop-color="#2A0056" stop-opacity="0"/>
</linearGradient>
<linearGradient id="paint6_linear_418_300" x1="0.000321224" y1="5.01292" x2="13.2188" y2="5.01292" gradientUnits="userSpaceOnUse">
<stop stop-color="#DF38FF"/>
<stop offset="1" stop-color="#FF39FF"/>
</linearGradient>
<linearGradient id="paint7_linear_418_300" x1="0.000321224" y1="3.00727" x2="5.67847" y2="3.00727" gradientUnits="userSpaceOnUse">
<stop stop-color="#8A0BFF"/>
<stop offset="0.9994" stop-color="#2A0056" stop-opacity="0"/>
</linearGradient>
</defs>
</svg>
