<svg width="178" height="67" viewBox="0 0 178 67" fill="none" xmlns="http://www.w3.org/2000/svg">
<path d="M23.9844 66.4632C23.9844 66.4632 23.9844 39.1741 23.9844 26.1493C23.9844 8.5024 38.2947 0.453042 51.1677 0.453042L63.5086 0.444092C63.5086 7.58516 58.851 16.4668 50.6475 16.4668C50.3299 16.4668 48.3565 16.4757 48.0467 16.4757C41.5864 16.4757 36.3213 21.5183 36.3213 31.957C36.3213 35.3038 36.3213 45.1608 36.3213 50.9685C36.3253 62.0157 31.0125 66.6377 23.9844 66.4632Z" fill="url(#paint0_linear_292_298)"/>
<path opacity="0.32" d="M30.9688 8.2829C26.7599 12.4664 23.9844 18.3726 23.9844 26.1445C23.9844 39.1738 23.9844 66.4584 23.9844 66.4584C28.9835 66.4584 30.2342 62.4091 30.2342 58.7133C30.2342 55.0175 30.2342 44.0151 30.2342 31.9522C30.2342 19.8938 35.4676 16.471 48.0507 16.471L46.1686 7.65649L30.9688 8.2829Z" fill="url(#paint1_linear_292_298)"/>
<path d="M18.9044 16.4621C18.9044 7.57157 24.92 0.439453 30.9356 0.439453H0C0 7.65658 4.84424 16.4621 13.6711 16.4621H18.9044Z" fill="url(#paint2_linear_292_298)"/>
<path d="M18.9044 16.4621C18.9044 7.57157 24.92 0.439453 30.9356 0.439453H0C0 7.65658 4.84424 16.4621 13.6711 16.4621H18.9044Z" fill="url(#paint3_linear_292_298)"/>
<path d="M63.5125 0.439453L51.1716 0.4484C38.2947 0.4484 23.9883 8.49776 23.9883 26.1446C23.9883 28.2073 23.9883 30.6324 23.9883 33.2454C23.9883 17.6791 39.0253 16.4711 48.0546 16.4711C48.3643 16.4711 50.3378 16.4845 50.6554 16.4621C60.5821 15.6701 63.5125 7.58052 63.5125 0.439453Z" fill="url(#paint4_linear_292_298)"/>
<path opacity="0.42" d="M23.9844 26.1446C23.9844 28.2073 23.9844 30.6324 23.9844 33.2454C23.9844 -5.29219 63.5126 20.0326 63.5126 0.439453L51.1717 0.4484C38.2947 0.4484 23.9844 8.50223 23.9844 26.1446Z" fill="url(#paint5_linear_292_298)"/>
<path d="M19.6073 0.439453H0C0 4.84222 1.80666 9.83559 5.21748 13.0571C-0.960907 4.47084 13.2025 0.439453 19.6073 0.439453Z" fill="url(#paint6_linear_292_298)"/>
<path opacity="0.32" d="M8.42183 0.439453H0C0 2.61399 0.440745 4.9317 1.29841 7.11071C1.47312 4.00551 4.69335 1.79966 8.42183 0.439453Z" fill="url(#paint7_linear_292_298)"/>
<path d="M57.9818 41.7042V50.1573H57V32.4688H63.1009C66.4139 32.4688 68.4406 34.1331 68.4406 37.0576C68.4406 39.2312 67.2593 40.7959 64.9491 41.2369C66.813 41.6202 68.1623 42.6702 68.1623 46.0042V46.5188C68.1623 48.2724 68.1308 49.5693 68.3881 50.1573H67.3905C67.1227 49.375 67.1752 48.1096 67.1752 46.4663V46.1198C67.1752 43.1165 66.3404 41.7042 62.6914 41.7042H57.9818ZM57.9818 40.8116H62.5602C65.5319 40.8116 67.4168 39.7825 67.4168 37.0838C67.4168 34.7264 65.8521 33.3508 62.9382 33.3508H57.9818V40.8116Z" fill="#A74CFF"/>
<path d="M74.6199 32.4688V43.3423C74.6199 48.0886 77.3606 49.501 80.117 49.501C83.4668 49.501 85.5669 47.8051 85.5669 43.3423V32.4688H86.5383V43.2583C86.5383 48.6819 83.7188 50.3831 80.0645 50.3831C76.741 50.3831 73.6328 48.6347 73.6328 43.5313V32.4688H74.6199Z" fill="#A74CFF"/>
<path d="M102.97 41.2526H93.6665V49.2805H103.831L103.679 50.1625H92.7109V32.4688H103.453V33.3508H93.6718V40.3706H102.975V41.2526H102.97Z" fill="#A74CFF"/>
<path d="M108.336 45.4793C108.866 48.073 110.667 49.5273 113.623 49.5273C116.826 49.5273 118.427 47.9259 118.427 45.6788C118.427 43.4526 117.451 42.2398 113.46 41.2107C109.801 40.2656 108.152 39.1368 108.152 36.5589C108.152 34.1122 109.985 32.2168 113.492 32.2168C117.372 32.2168 118.858 34.5637 119.11 36.6219H118.123C117.698 34.5165 116.296 33.0989 113.439 33.0989C110.799 33.0989 109.176 34.3064 109.176 36.4959C109.176 38.6013 110.431 39.4676 113.765 40.3076C118.611 41.531 119.451 43.3214 119.451 45.6053C119.451 48.3407 117.43 50.3831 113.586 50.3831C109.533 50.3831 107.753 48.1097 107.344 45.4793H108.336Z" fill="#A74CFF"/>
<path d="M128.286 33.3508H122.195V32.4688H135.369V33.3508H129.257V50.1573H128.286V33.3508Z" fill="#A74CFF"/>
<path d="M138.632 43.6783L136.201 50.1573H135.219L141.85 32.4688H142.953L149.862 50.1573H148.812L146.308 43.6783H138.632ZM145.972 42.8015C143.877 37.3831 142.748 34.4691 142.396 33.4296H142.37C142.06 34.4481 140.642 38.2599 138.973 42.8015H145.972Z" fill="#A74CFF"/>
<path d="M155.829 33.3508H149.738V32.4688H162.911V33.3508H156.8V50.1573H155.829V33.3508Z" fill="#A74CFF"/>
<path d="M177.138 41.2526H167.834V49.2805H177.999L177.847 50.1625H166.879V32.4688H177.621V33.3508H167.84V40.3706H177.143V41.2526H177.138Z" fill="#A74CFF"/>
<defs>
<linearGradient id="paint0_linear_292_298" x1="43.3592" y1="14.3477" x2="44.2518" y2="48.9369" gradientUnits="userSpaceOnUse">
<stop offset="0.000294" stop-color="#2A0056"/>
<stop offset="1" stop-color="#8A0BFF"/>
</linearGradient>
<linearGradient id="paint1_linear_292_298" x1="23.9838" y1="37.0602" x2="48.0504" y2="37.0602" gradientUnits="userSpaceOnUse">
<stop offset="0.000294" stop-color="#2A0056"/>
<stop offset="1" stop-color="#8A0BFF"/>
</linearGradient>
<linearGradient id="paint2_linear_292_298" x1="4.56554" y1="-5.45233" x2="22.2023" y2="7.09914" gradientUnits="userSpaceOnUse">
<stop stop-color="#DF38FF"/>
<stop offset="1" stop-color="#FF39FF"/>
</linearGradient>
<linearGradient id="paint3_linear_292_298" x1="9.70928" y1="-0.804148" x2="27.3461" y2="11.7473" gradientUnits="userSpaceOnUse">
<stop stop-color="#3D0056"/>
<stop offset="0.793" stop-color="#FF0BA2" stop-opacity="0.4"/>
</linearGradient>
<linearGradient id="paint4_linear_292_298" x1="23.9838" y1="16.8445" x2="63.511" y2="16.8445" gradientUnits="userSpaceOnUse">
<stop stop-color="#A553FF"/>
<stop offset="0.9994" stop-color="#AE38FF"/>
</linearGradient>
<linearGradient id="paint5_linear_292_298" x1="67.4474" y1="16.7174" x2="27.1387" y2="16.8561" gradientUnits="userSpaceOnUse">
<stop stop-color="#8A0BFF"/>
<stop offset="0.9994" stop-color="#2A0056" stop-opacity="0"/>
</linearGradient>
<linearGradient id="paint6_linear_292_298" x1="0.000476482" y1="6.7512" x2="19.6078" y2="6.7512" gradientUnits="userSpaceOnUse">
<stop stop-color="#DF38FF"/>
<stop offset="1" stop-color="#FF39FF"/>
</linearGradient>
<linearGradient id="paint7_linear_292_298" x1="0.000476482" y1="3.77616" x2="8.42306" y2="3.77616" gradientUnits="userSpaceOnUse">
<stop stop-color="#8A0BFF"/>
<stop offset="0.9994" stop-color="#2A0056" stop-opacity="0"/>
</linearGradient>
</defs>
</svg>
